<?xml version="1.0" encoding="UTF-8"?>
<svg xmlns="http://www.w3.org/2000/svg" xmlns:xlink="http://www.w3.org/1999/xlink" width="854" height="480" viewBox="0 0 854 480">
<defs>
<g>
<g id="glyph-0-0">
<path d="M 2.71875 0.109375 C 2.019531 0.109375 1.472656 -0.03125 1.078125 -0.3125 C 0.691406 -0.59375 0.5 -0.941406 0.5 -1.359375 C 0.5 -1.847656 0.753906 -2.09375 1.265625 -2.09375 C 1.273438 -1.40625 1.40625 -0.882812 1.65625 -0.53125 C 1.90625 -0.175781 2.285156 0 2.796875 0 C 3.242188 0 3.609375 -0.128906 3.890625 -0.390625 C 4.171875 -0.660156 4.3125 -1.050781 4.3125 -1.5625 C 4.3125 -1.875 4.25 -2.128906 4.125 -2.328125 C 4.007812 -2.523438 3.820312 -2.703125 3.5625 -2.859375 C 3.3125 -3.023438 2.976562 -3.203125 2.5625 -3.390625 C 2.34375 -3.492188 2.117188 -3.609375 1.890625 -3.734375 C 1.660156 -3.859375 1.445312 -4.003906 1.25 -4.171875 C 1.0625 -4.347656 0.910156 -4.5625 0.796875 -4.8125 C 0.679688 -5.0625 0.625 -5.359375 0.625 -5.703125 C 0.625 -6.335938 0.828125 -6.816406 1.234375 -7.140625 C 1.640625 -7.472656 2.179688 -7.640625 2.859375 -7.640625 C 3.265625 -7.640625 3.617188 -7.582031 3.921875 -7.46875 C 4.234375 -7.363281 4.472656 -7.21875 4.640625 -7.03125 C 4.816406 -6.851562 4.90625 -6.65625 4.90625 -6.4375 C 4.90625 -6.226562 4.828125 -6.066406 4.671875 -5.953125 C 4.523438 -5.835938 4.328125 -5.78125 4.078125 -5.78125 C 4.078125 -6.363281 3.976562 -6.800781 3.78125 -7.09375 C 3.59375 -7.394531 3.28125 -7.546875 2.84375 -7.546875 C 2.4375 -7.546875 2.109375 -7.421875 1.859375 -7.171875 C 1.617188 -6.921875 1.5 -6.554688 1.5 -6.078125 C 1.5 -5.734375 1.5625 -5.457031 1.6875 -5.25 C 1.8125 -5.039062 2.003906 -4.859375 2.265625 -4.703125 C 2.523438 -4.554688 2.847656 -4.390625 3.234375 -4.203125 C 3.585938 -4.035156 3.910156 -3.863281 4.203125 -3.6875 C 4.503906 -3.519531 4.742188 -3.300781 4.921875 -3.03125 C 5.109375 -2.757812 5.203125 -2.40625 5.203125 -1.96875 C 5.203125 -1.332031 4.984375 -0.828125 4.546875 -0.453125 C 4.117188 -0.078125 3.507812 0.109375 2.71875 0.109375 Z "/>
</g>
<g id="glyph-0-1">
<path d="M 0.1875 2.53125 L 0.1875 2.421875 L 0.28125 2.421875 C 0.582031 2.421875 0.800781 2.359375 0.9375 2.234375 C 1.070312 2.109375 1.140625 1.898438 1.140625 1.609375 L 1.140625 -4.734375 C 1.140625 -5.023438 1.070312 -5.234375 0.9375 -5.359375 C 0.800781 -5.492188 0.582031 -5.5625 0.28125 -5.5625 L 0.140625 -5.5625 L 0.140625 -5.65625 L 2.109375 -5.65625 L 2.109375 -4.1875 L 2.140625 -4.1875 C 2.234375 -4.726562 2.414062 -5.125 2.6875 -5.375 C 2.957031 -5.632812 3.328125 -5.765625 3.796875 -5.765625 C 5.203125 -5.765625 5.90625 -4.789062 5.90625 -2.84375 C 5.90625 -1.875 5.722656 -1.140625 5.359375 -0.640625 C 4.992188 -0.140625 4.46875 0.109375 3.78125 0.109375 C 3.320312 0.109375 2.957031 -0.0195312 2.6875 -0.28125 C 2.425781 -0.539062 2.242188 -0.941406 2.140625 -1.484375 L 2.125 -1.484375 C 2.132812 -1.304688 2.140625 -1.128906 2.140625 -0.953125 C 2.140625 -0.785156 2.140625 -0.613281 2.140625 -0.4375 L 2.140625 1.5625 C 2.140625 1.875 2.203125 2.09375 2.328125 2.21875 C 2.460938 2.351562 2.6875 2.421875 3 2.421875 L 3.03125 2.421875 L 3.03125 2.53125 Z M 3.609375 -0.046875 C 4.054688 -0.046875 4.378906 -0.257812 4.578125 -0.6875 C 4.773438 -1.125 4.875 -1.847656 4.875 -2.859375 C 4.875 -3.847656 4.773438 -4.550781 4.578125 -4.96875 C 4.378906 -5.394531 4.050781 -5.609375 3.59375 -5.609375 C 3.070312 -5.609375 2.695312 -5.375 2.46875 -4.90625 C 2.25 -4.445312 2.140625 -3.757812 2.140625 -2.84375 C 2.140625 -1.894531 2.257812 -1.191406 2.5 -0.734375 C 2.738281 -0.273438 3.109375 -0.046875 3.609375 -0.046875 Z "/>
</g>
<g id="glyph-0-2">
<path d="M 3.078125 0.109375 C 2.296875 0.109375 1.679688 -0.144531 1.234375 -0.65625 C 0.796875 -1.164062 0.578125 -1.875 0.578125 -2.78125 C 0.578125 -3.769531 0.78125 -4.515625 1.1875 -5.015625 C 1.601562 -5.515625 2.179688 -5.765625 2.921875 -5.765625 C 3.609375 -5.765625 4.144531 -5.550781 4.53125 -5.125 C 4.925781 -4.707031 5.125 -4.082031 5.125 -3.25 L 5.125 -2.984375 L 1.609375 -2.984375 C 1.609375 -1.910156 1.722656 -1.144531 1.953125 -0.6875 C 2.179688 -0.226562 2.566406 0 3.109375 0 C 3.503906 0 3.835938 -0.109375 4.109375 -0.328125 C 4.390625 -0.546875 4.566406 -0.867188 4.640625 -1.296875 C 4.722656 -1.285156 4.785156 -1.242188 4.828125 -1.171875 C 4.867188 -1.097656 4.890625 -1.023438 4.890625 -0.953125 C 4.890625 -0.804688 4.820312 -0.648438 4.6875 -0.484375 C 4.550781 -0.328125 4.351562 -0.1875 4.09375 -0.0625 C 3.832031 0.0507812 3.492188 0.109375 3.078125 0.109375 Z M 4.0625 -3.09375 C 4.0625 -4.019531 3.972656 -4.675781 3.796875 -5.0625 C 3.617188 -5.457031 3.320312 -5.65625 2.90625 -5.65625 C 2.476562 -5.65625 2.160156 -5.457031 1.953125 -5.0625 C 1.753906 -4.675781 1.640625 -4.019531 1.609375 -3.09375 Z "/>
</g>
<g id="glyph-0-3">
<path d="M 2.703125 0.109375 C 2.015625 0.109375 1.488281 -0.140625 1.125 -0.640625 C 0.757812 -1.140625 0.578125 -1.875 0.578125 -2.84375 C 0.578125 -4.789062 1.28125 -5.765625 2.6875 -5.765625 C 3.164062 -5.765625 3.539062 -5.632812 3.8125 -5.375 C 4.082031 -5.125 4.265625 -4.726562 4.359375 -4.1875 L 4.375 -4.1875 C 4.363281 -4.570312 4.359375 -4.9375 4.359375 -5.28125 C 4.359375 -5.632812 4.359375 -5.898438 4.359375 -6.078125 L 4.359375 -7.09375 C 4.359375 -7.394531 4.289062 -7.609375 4.15625 -7.734375 C 4.019531 -7.859375 3.796875 -7.921875 3.484375 -7.921875 L 3.453125 -7.921875 L 3.453125 -8.03125 L 5.34375 -8.03125 L 5.34375 -0.921875 C 5.34375 -0.628906 5.410156 -0.421875 5.546875 -0.296875 C 5.679688 -0.171875 5.898438 -0.109375 6.203125 -0.109375 L 6.296875 -0.109375 L 6.296875 0 L 4.359375 0 L 4.359375 -1.484375 L 4.34375 -1.484375 C 4.25 -0.941406 4.066406 -0.539062 3.796875 -0.28125 C 3.523438 -0.0195312 3.160156 0.109375 2.703125 0.109375 Z M 2.890625 -0.046875 C 3.390625 -0.046875 3.757812 -0.273438 4 -0.734375 C 4.238281 -1.191406 4.359375 -1.894531 4.359375 -2.84375 C 4.359375 -3.757812 4.242188 -4.445312 4.015625 -4.90625 C 3.785156 -5.375 3.410156 -5.609375 2.890625 -5.609375 C 2.429688 -5.609375 2.101562 -5.394531 1.90625 -4.96875 C 1.707031 -4.550781 1.609375 -3.847656 1.609375 -2.859375 C 1.609375 -1.847656 1.707031 -1.125 1.90625 -0.6875 C 2.101562 -0.257812 2.429688 -0.046875 2.890625 -0.046875 Z "/>
</g>
<g id="glyph-0-4">
</g>
<g id="glyph-0-5">
<path d="M 1.6875 -6.671875 C 1.550781 -6.671875 1.4375 -6.710938 1.34375 -6.796875 C 1.257812 -6.890625 1.21875 -7.046875 1.21875 -7.265625 C 1.21875 -7.492188 1.257812 -7.648438 1.34375 -7.734375 C 1.4375 -7.816406 1.550781 -7.859375 1.6875 -7.859375 C 1.8125 -7.859375 1.921875 -7.816406 2.015625 -7.734375 C 2.109375 -7.648438 2.15625 -7.492188 2.15625 -7.265625 C 2.15625 -7.046875 2.109375 -6.890625 2.015625 -6.796875 C 1.921875 -6.710938 1.8125 -6.671875 1.6875 -6.671875 Z M 0.25 0 L 0.25 -0.109375 L 0.375 -0.109375 C 0.6875 -0.109375 0.910156 -0.171875 1.046875 -0.296875 C 1.179688 -0.421875 1.25 -0.628906 1.25 -0.921875 L 1.25 -4.734375 C 1.25 -5.023438 1.179688 -5.234375 1.046875 -5.359375 C 0.910156 -5.492188 0.6875 -5.5625 0.375 -5.5625 L 0.34375 -5.5625 L 0.34375 -5.65625 L 2.234375 -5.65625 L 2.234375 -0.96875 C 2.234375 -0.65625 2.300781 -0.429688 2.4375 -0.296875 C 2.570312 -0.171875 2.796875 -0.109375 3.109375 -0.109375 L 3.25 -0.109375 L 3.25 0 Z "/>
</g>
<g id="glyph-0-6">
<path d="M 2.265625 0.109375 C 1.734375 0.109375 1.300781 0.015625 0.96875 -0.171875 C 0.632812 -0.367188 0.46875 -0.648438 0.46875 -1.015625 C 0.46875 -1.203125 0.503906 -1.347656 0.578125 -1.453125 C 0.660156 -1.554688 0.753906 -1.628906 0.859375 -1.671875 C 0.960938 -1.722656 1.054688 -1.75 1.140625 -1.75 C 1.140625 -1.175781 1.222656 -0.738281 1.390625 -0.4375 C 1.554688 -0.144531 1.851562 0 2.28125 0 C 2.65625 0 2.953125 -0.09375 3.171875 -0.28125 C 3.390625 -0.476562 3.5 -0.769531 3.5 -1.15625 C 3.5 -1.394531 3.457031 -1.585938 3.375 -1.734375 C 3.289062 -1.878906 3.148438 -2.007812 2.953125 -2.125 C 2.753906 -2.238281 2.484375 -2.367188 2.140625 -2.515625 C 1.742188 -2.691406 1.425781 -2.863281 1.1875 -3.03125 C 0.957031 -3.195312 0.789062 -3.375 0.6875 -3.5625 C 0.59375 -3.757812 0.546875 -3.992188 0.546875 -4.265625 C 0.546875 -4.742188 0.710938 -5.109375 1.046875 -5.359375 C 1.390625 -5.617188 1.863281 -5.75 2.46875 -5.75 C 2.96875 -5.75 3.359375 -5.65625 3.640625 -5.46875 C 3.929688 -5.28125 4.078125 -5.050781 4.078125 -4.78125 C 4.078125 -4.59375 4.007812 -4.441406 3.875 -4.328125 C 3.75 -4.210938 3.5625 -4.15625 3.3125 -4.15625 C 3.3125 -4.695312 3.238281 -5.082031 3.09375 -5.3125 C 2.945312 -5.539062 2.71875 -5.65625 2.40625 -5.65625 C 1.6875 -5.65625 1.328125 -5.316406 1.328125 -4.640625 C 1.328125 -4.390625 1.375 -4.191406 1.46875 -4.046875 C 1.570312 -3.898438 1.726562 -3.769531 1.9375 -3.65625 C 2.144531 -3.550781 2.40625 -3.4375 2.71875 -3.3125 C 3.113281 -3.144531 3.425781 -2.976562 3.65625 -2.8125 C 3.894531 -2.644531 4.0625 -2.460938 4.15625 -2.265625 C 4.25 -2.066406 4.296875 -1.828125 4.296875 -1.546875 C 4.296875 -1.003906 4.113281 -0.59375 3.75 -0.3125 C 3.382812 -0.03125 2.890625 0.109375 2.265625 0.109375 Z "/>
</g>
<g id="glyph-0-7">
<path d="M 0.25 0 L 0.25 -0.109375 L 0.375 -0.109375 C 0.6875 -0.109375 0.910156 -0.171875 1.046875 -0.296875 C 1.179688 -0.421875 1.25 -0.628906 1.25 -0.921875 L 1.25 -4.734375 C 1.25 -5.023438 1.179688 -5.234375 1.046875 -5.359375 C 0.910156 -5.492188 0.6875 -5.5625 0.375 -5.5625 L 0.34375 -5.5625 L 0.34375 -5.65625 L 2.234375 -5.65625 L 2.234375 -4.609375 L 2.25 -4.609375 C 2.300781 -4.785156 2.375 -4.960938 2.46875 -5.140625 C 2.570312 -5.316406 2.722656 -5.460938 2.921875 -5.578125 C 3.117188 -5.703125 3.390625 -5.765625 3.734375 -5.765625 C 4.078125 -5.765625 4.34375 -5.695312 4.53125 -5.5625 C 4.71875 -5.425781 4.8125 -5.234375 4.8125 -4.984375 C 4.8125 -4.773438 4.734375 -4.597656 4.578125 -4.453125 C 4.429688 -4.316406 4.179688 -4.25 3.828125 -4.25 C 3.828125 -4.6875 3.753906 -4.984375 3.609375 -5.140625 C 3.460938 -5.304688 3.296875 -5.390625 3.109375 -5.390625 C 2.910156 -5.390625 2.75 -5.316406 2.625 -5.171875 C 2.507812 -5.035156 2.421875 -4.851562 2.359375 -4.625 C 2.304688 -4.394531 2.269531 -4.15625 2.25 -3.90625 C 2.238281 -3.664062 2.234375 -3.445312 2.234375 -3.25 L 2.234375 -0.96875 C 2.234375 -0.65625 2.300781 -0.429688 2.4375 -0.296875 C 2.570312 -0.171875 2.796875 -0.109375 3.109375 -0.109375 L 3.25 -0.109375 L 3.25 0 Z "/>
</g>
<g id="glyph-0-8">
<path d="M 0.703125 -5 C 0.640625 -5.207031 0.554688 -5.351562 0.453125 -5.4375 C 0.359375 -5.519531 0.222656 -5.5625 0.046875 -5.5625 L 0.046875 -5.65625 L 2.6875 -5.65625 L 2.6875 -5.5625 L 2.421875 -5.5625 C 2.203125 -5.5625 2.035156 -5.53125 1.921875 -5.46875 C 1.816406 -5.40625 1.765625 -5.300781 1.765625 -5.15625 C 1.765625 -5.039062 1.800781 -4.875 1.875 -4.65625 L 2.71875 -2.328125 C 2.8125 -2.066406 2.890625 -1.835938 2.953125 -1.640625 C 3.015625 -1.453125 3.078125 -1.257812 3.140625 -1.0625 C 3.210938 -0.875 3.289062 -0.644531 3.375 -0.375 C 3.4375 -0.582031 3.492188 -0.765625 3.546875 -0.921875 C 3.609375 -1.078125 3.679688 -1.273438 3.765625 -1.515625 L 4.828125 -4.59375 C 4.859375 -4.707031 4.882812 -4.804688 4.90625 -4.890625 C 4.925781 -4.972656 4.9375 -5.050781 4.9375 -5.125 C 4.9375 -5.28125 4.875 -5.390625 4.75 -5.453125 C 4.632812 -5.523438 4.441406 -5.5625 4.171875 -5.5625 L 3.828125 -5.5625 L 3.828125 -5.65625 L 6.078125 -5.65625 L 6.078125 -5.5625 L 5.78125 -5.5625 C 5.59375 -5.5625 5.4375 -5.5 5.3125 -5.375 C 5.195312 -5.257812 5.085938 -5.046875 4.984375 -4.734375 L 3.359375 0 L 2.53125 0 Z "/>
</g>
<g id="glyph-0-9">
<path d="M 0.296875 0 L 0.296875 -0.109375 L 0.375 -0.109375 C 0.707031 -0.109375 0.9375 -0.175781 1.0625 -0.3125 C 1.1875 -0.457031 1.25 -0.710938 1.25 -1.078125 L 1.25 -4.609375 C 1.25 -4.960938 1.1875 -5.207031 1.0625 -5.34375 C 0.945312 -5.488281 0.726562 -5.5625 0.40625 -5.5625 L 0.34375 -5.5625 L 0.34375 -5.65625 L 2.234375 -5.65625 L 2.234375 -4.671875 L 2.25 -4.671875 C 2.34375 -5.003906 2.476562 -5.242188 2.65625 -5.390625 C 2.832031 -5.546875 3.023438 -5.644531 3.234375 -5.6875 C 3.441406 -5.738281 3.632812 -5.765625 3.8125 -5.765625 C 4.4375 -5.765625 4.898438 -5.597656 5.203125 -5.265625 C 5.515625 -4.941406 5.671875 -4.421875 5.671875 -3.703125 L 5.671875 -1.078125 C 5.671875 -0.710938 5.726562 -0.457031 5.84375 -0.3125 C 5.957031 -0.175781 6.164062 -0.109375 6.46875 -0.109375 L 6.515625 -0.109375 L 6.515625 0 L 4.671875 0 L 4.671875 -4.0625 C 4.671875 -4.519531 4.585938 -4.890625 4.421875 -5.171875 C 4.253906 -5.460938 3.960938 -5.609375 3.546875 -5.609375 C 3.210938 -5.609375 2.953125 -5.519531 2.765625 -5.34375 C 2.578125 -5.164062 2.441406 -4.9375 2.359375 -4.65625 C 2.273438 -4.382812 2.234375 -4.097656 2.234375 -3.796875 L 2.234375 -1.078125 C 2.234375 -0.710938 2.289062 -0.457031 2.40625 -0.3125 C 2.53125 -0.175781 2.753906 -0.109375 3.078125 -0.109375 L 3.140625 -0.109375 L 3.140625 0 Z "/>
</g>
<g id="glyph-0-10">
<path d="M 2.984375 0.109375 C 2.367188 0.109375 1.90625 -0.0507812 1.59375 -0.375 C 1.289062 -0.707031 1.140625 -1.238281 1.140625 -1.96875 L 1.140625 -4.609375 C 1.140625 -4.960938 1.078125 -5.207031 0.953125 -5.34375 C 0.828125 -5.488281 0.601562 -5.5625 0.28125 -5.5625 L 0.25 -5.5625 L 0.25 -5.65625 L 2.140625 -5.65625 L 2.140625 -1.90625 C 2.140625 -1.238281 2.210938 -0.757812 2.359375 -0.46875 C 2.503906 -0.1875 2.769531 -0.046875 3.15625 -0.046875 C 3.625 -0.046875 3.976562 -0.226562 4.21875 -0.59375 C 4.457031 -0.96875 4.578125 -1.492188 4.578125 -2.171875 L 4.578125 -4.609375 C 4.578125 -4.960938 4.515625 -5.207031 4.390625 -5.34375 C 4.265625 -5.488281 4.035156 -5.5625 3.703125 -5.5625 L 3.671875 -5.5625 L 3.671875 -5.65625 L 5.5625 -5.65625 L 5.5625 -1.046875 C 5.5625 -0.679688 5.625 -0.429688 5.75 -0.296875 C 5.882812 -0.171875 6.113281 -0.109375 6.4375 -0.109375 L 6.46875 -0.109375 L 6.46875 0 L 4.640625 0 L 4.640625 -1.453125 L 4.625 -1.453125 C 4.570312 -1.085938 4.484375 -0.800781 4.359375 -0.59375 C 4.234375 -0.382812 4.09375 -0.226562 3.9375 -0.125 C 3.78125 -0.03125 3.617188 0.03125 3.453125 0.0625 C 3.285156 0.09375 3.128906 0.109375 2.984375 0.109375 Z "/>
</g>
</g>
</defs>
<g fill="rgb(91.372549%, 92.941176%, 96.078431%)" fill-opacity="1">
<use xlink:href="#glyph-0-0" x="30" y="31.28418"/>
<use xlink:href="#glyph-0-1" x="35.742188" y="31.28418"/>
<use xlink:href="#glyph-0-2" x="42.223633" y="31.28418"/>
<use xlink:href="#glyph-0-2" x="47.871094" y="31.28418"/>
<use xlink:href="#glyph-0-3" x="53.518555" y="31.28418"/>
<use xlink:href="#glyph-0-4" x="60" y="31.28418"/>
<use xlink:href="#glyph-0-5" x="62.375" y="31.28418"/>
<use xlink:href="#glyph-0-6" x="65.75293" y="31.28418"/>
<use xlink:href="#glyph-0-4" x="70.513672" y="31.28418"/>
<use xlink:href="#glyph-0-7" x="72.888672" y="31.28418"/>
<use xlink:href="#glyph-0-2" x="77.860352" y="31.28418"/>
<use xlink:href="#glyph-0-8" x="83.507812" y="31.28418"/>
<use xlink:href="#glyph-0-2" x="89.619141" y="31.28418"/>
<use xlink:href="#glyph-0-9" x="95.266602" y="31.28418"/>
<use xlink:href="#glyph-0-10" x="102.075195" y="31.28418"/>
<use xlink:href="#glyph-0-2" x="108.77832" y="31.28418"/>
</g>
</svg>
